<?xml version="1.0" encoding="UTF-8" standalone="no"?>
<!DOCTYPE svg PUBLIC "-//W3C//DTD SVG 1.1//EN"
 "http://www.w3.org/Graphics/SVG/1.1/DTD/svg11.dtd">
<!-- Generated by graphviz version 2.47.0 (20210316.0004)
 -->
<!-- Title: dependencies Pages: 1 -->
<svg width="531pt" height="211pt"
 viewBox="0.00 0.00 531.00 211.00" xmlns="http://www.w3.org/2000/svg" xmlns:xlink="http://www.w3.org/1999/xlink">
<g id="graph0" class="graph" transform="scale(1 1) rotate(0) translate(4 207)">
<title>dependencies</title>
<polygon fill="white" stroke="transparent" points="-4,4 -4,-207 527,-207 527,4 -4,4"/>
<text text-anchor="start" x="240.51" y="-42.4" font-family="Times-12" font-weight="bold" font-size="14.00">Legend</text>
<polygon fill="#ffffb3" stroke="transparent" points="27.5,-10 27.5,-30 47.5,-30 47.5,-10 27.5,-10"/>
<text text-anchor="start" x="51.13" y="-15.4" font-family="Times-12" font-size="14.00"> &#160;Declarations</text>
<polygon fill="#8dd3c7" stroke="transparent" points="140.5,-10 140.5,-30 160.5,-30 160.5,-10 140.5,-10"/>
<text text-anchor="start" x="164.23" y="-15.4" font-family="Times-12" font-size="14.00"> &#160;Module</text>
<polygon fill="#80b1d3" stroke="transparent" points="226.5,-10 226.5,-30 246.5,-30 246.5,-10 226.5,-10"/>
<text text-anchor="start" x="250.28" y="-15.4" font-family="Times-12" font-size="14.00"> &#160;Bootstrap</text>
<polygon fill="#fdb462" stroke="transparent" points="323.5,-10 323.5,-30 343.5,-30 343.5,-10 323.5,-10"/>
<text text-anchor="start" x="347.17" y="-15.4" font-family="Times-12" font-size="14.00"> &#160;Providers</text>
<polygon fill="#fb8072" stroke="transparent" points="419.5,-10 419.5,-30 439.5,-30 439.5,-10 419.5,-10"/>
<text text-anchor="start" x="443.23" y="-15.4" font-family="Times-12" font-size="14.00"> &#160;Exports</text>
<g id="clust1" class="cluster">
<title>cluster_ShowgraphsModule</title>
<polygon fill="none" stroke="black" stroke-dasharray="1,5" points="8,-70 8,-195 515,-195 515,-70 8,-70"/>
</g>
<g id="clust2" class="cluster">
<title>cluster_ShowgraphsModule_declarations</title>
<polygon fill="none" stroke="black" points="214,-78 214,-130 507,-130 507,-78 214,-78"/>
</g>
<g id="clust5" class="cluster">
<title>cluster_ShowgraphsModule_imports</title>
<polygon fill="none" stroke="black" points="16,-78 16,-130 206,-130 206,-78 16,-78"/>
</g>
<!-- ShowgraphsComponent -->
<g id="node1" class="node">
<title>ShowgraphsComponent</title>
<polygon fill="#ffffb3" stroke="black" points="499.04,-122 348.96,-122 348.96,-86 499.04,-86 499.04,-122"/>
<text text-anchor="middle" x="424" y="-99.8" font-family="Times,serif" font-size="14.00">ShowgraphsComponent</text>
</g>
<!-- ShowgraphsModule -->
<g id="node3" class="node">
<title>ShowgraphsModule</title>
<polygon fill="#8dd3c7" stroke="black" points="340.26,-187 337.26,-191 316.26,-191 313.26,-187 211.74,-187 211.74,-151 340.26,-151 340.26,-187"/>
<text text-anchor="middle" x="276" y="-164.8" font-family="Times,serif" font-size="14.00">ShowgraphsModule</text>
</g>
<!-- ShowgraphsComponent&#45;&gt;ShowgraphsModule -->
<g id="edge1" class="edge">
<title>ShowgraphsComponent&#45;&gt;ShowgraphsModule</title>
<path fill="none" stroke="black" d="M348.79,-104C340.7,-104 335.33,-104 335.33,-104 335.33,-104 335.33,-140.89 335.33,-140.89"/>
<polygon fill="black" stroke="black" points="331.83,-140.89 335.33,-150.89 338.83,-140.89 331.83,-140.89"/>
</g>
<!-- VideComponent -->
<g id="node2" class="node">
<title>VideComponent</title>
<polygon fill="#ffffb3" stroke="black" points="330.05,-122 221.95,-122 221.95,-86 330.05,-86 330.05,-122"/>
<text text-anchor="middle" x="276" y="-99.8" font-family="Times,serif" font-size="14.00">VideComponent</text>
</g>
<!-- VideComponent&#45;&gt;ShowgraphsModule -->
<g id="edge2" class="edge">
<title>VideComponent&#45;&gt;ShowgraphsModule</title>
<path fill="none" stroke="black" d="M276,-122.11C276,-122.11 276,-140.99 276,-140.99"/>
<polygon fill="black" stroke="black" points="272.5,-140.99 276,-150.99 279.5,-140.99 272.5,-140.99"/>
</g>
<!-- ShowgraphsRoutingModule -->
<g id="node4" class="node">
<title>ShowgraphsRoutingModule</title>
<polygon fill="#8dd3c7" stroke="black" points="197.88,-122 194.88,-126 173.88,-126 170.88,-122 24.12,-122 24.12,-86 197.88,-86 197.88,-122"/>
<text text-anchor="middle" x="111" y="-99.8" font-family="Times,serif" font-size="14.00">ShowgraphsRoutingModule</text>
</g>
<!-- ShowgraphsRoutingModule&#45;&gt;ShowgraphsModule -->
<g id="edge3" class="edge">
<title>ShowgraphsRoutingModule&#45;&gt;ShowgraphsModule</title>
<path fill="none" stroke="black" d="M198.27,-104C209.22,-104 216.67,-104 216.67,-104 216.67,-104 216.67,-140.89 216.67,-140.89"/>
<polygon fill="black" stroke="black" points="213.17,-140.89 216.67,-150.89 220.17,-140.89 213.17,-140.89"/>
</g>
</g>
</svg>
