<?xml version="1.0" encoding="UTF-8" standalone="no"?>
<!DOCTYPE svg PUBLIC "-//W3C//DTD SVG 1.1//EN"
 "http://www.w3.org/Graphics/SVG/1.1/DTD/svg11.dtd">
<!-- Generated by graphviz version 2.47.0 (20210316.0004)
 -->
<!-- Title: dependencies Pages: 1 -->
<svg width="1636pt" height="284pt"
 viewBox="0.00 0.00 1636.00 284.00" xmlns="http://www.w3.org/2000/svg" xmlns:xlink="http://www.w3.org/1999/xlink">
<g id="graph0" class="graph" transform="scale(1 1) rotate(0) translate(4 280)">
<title>dependencies</title>
<polygon fill="white" stroke="transparent" points="-4,4 -4,-280 1632,-280 1632,4 -4,4"/>
<text text-anchor="start" x="793.01" y="-42.4" font-family="Times-12" font-weight="bold" font-size="14.00">Legend</text>
<polygon fill="#ffffb3" stroke="transparent" points="580,-10 580,-30 600,-30 600,-10 580,-10"/>
<text text-anchor="start" x="603.63" y="-15.4" font-family="Times-12" font-size="14.00"> &#160;Declarations</text>
<polygon fill="#8dd3c7" stroke="transparent" points="693,-10 693,-30 713,-30 713,-10 693,-10"/>
<text text-anchor="start" x="716.73" y="-15.4" font-family="Times-12" font-size="14.00"> &#160;Module</text>
<polygon fill="#80b1d3" stroke="transparent" points="779,-10 779,-30 799,-30 799,-10 779,-10"/>
<text text-anchor="start" x="802.78" y="-15.4" font-family="Times-12" font-size="14.00"> &#160;Bootstrap</text>
<polygon fill="#fdb462" stroke="transparent" points="876,-10 876,-30 896,-30 896,-10 876,-10"/>
<text text-anchor="start" x="899.67" y="-15.4" font-family="Times-12" font-size="14.00"> &#160;Providers</text>
<polygon fill="#fb8072" stroke="transparent" points="972,-10 972,-30 992,-30 992,-10 972,-10"/>
<text text-anchor="start" x="995.73" y="-15.4" font-family="Times-12" font-size="14.00"> &#160;Exports</text>
<g id="clust1" class="cluster">
<title>cluster_AppModule</title>
<polygon fill="none" stroke="black" stroke-dasharray="1,5" points="8,-70 8,-268 1620,-268 1620,-70 8,-70"/>
</g>
<g id="clust11" class="cluster">
<title>cluster_AppModule_providers</title>
<polygon fill="none" stroke="black" points="1098,-78 1098,-130 1612,-130 1612,-78 1098,-78"/>
</g>
<g id="clust8" class="cluster">
<title>cluster_AppModule_imports</title>
<polygon fill="none" stroke="black" points="771,-78 771,-130 1090,-130 1090,-78 771,-78"/>
</g>
<g id="clust2" class="cluster">
<title>cluster_AppModule_declarations</title>
<polygon fill="none" stroke="black" points="16,-78 16,-130 763,-130 763,-78 16,-78"/>
</g>
<g id="clust10" class="cluster">
<title>cluster_AppModule_bootstrap</title>
<polygon fill="none" stroke="black" points="717,-208 717,-260 841,-260 841,-208 717,-208"/>
</g>
<!-- AppComponent -->
<g id="node1" class="node">
<title>AppComponent</title>
<polygon fill="#ffffb3" stroke="black" points="754.94,-122 649.06,-122 649.06,-86 754.94,-86 754.94,-122"/>
<text text-anchor="middle" x="702" y="-99.8" font-family="Times,serif" font-size="14.00">AppComponent</text>
</g>
<!-- AppModule -->
<g id="node6" class="node">
<title>AppModule</title>
<polygon fill="#8dd3c7" stroke="black" points="820.66,-187 817.66,-191 796.66,-191 793.66,-187 737.34,-187 737.34,-151 820.66,-151 820.66,-187"/>
<text text-anchor="middle" x="779" y="-164.8" font-family="Times,serif" font-size="14.00">AppModule</text>
</g>
<!-- AppComponent&#45;&gt;AppModule -->
<g id="edge1" class="edge">
<title>AppComponent&#45;&gt;AppModule</title>
<path fill="none" stroke="black" d="M745.95,-122.11C745.95,-122.11 745.95,-140.99 745.95,-140.99"/>
<polygon fill="black" stroke="black" points="742.45,-140.99 745.95,-150.99 749.45,-140.99 742.45,-140.99"/>
</g>
<!-- ChangepwdreqComponent -->
<g id="node2" class="node">
<title>ChangepwdreqComponent</title>
<polygon fill="#ffffb3" stroke="black" points="631.08,-122 464.92,-122 464.92,-86 631.08,-86 631.08,-122"/>
<text text-anchor="middle" x="548" y="-99.8" font-family="Times,serif" font-size="14.00">ChangepwdreqComponent</text>
</g>
<!-- ChangepwdreqComponent&#45;&gt;AppModule -->
<g id="edge2" class="edge">
<title>ChangepwdreqComponent&#45;&gt;AppModule</title>
<path fill="none" stroke="black" d="M548,-122.01C548,-138.05 548,-159 548,-159 548,-159 727.17,-159 727.17,-159"/>
<polygon fill="black" stroke="black" points="727.17,-162.5 737.17,-159 727.17,-155.5 727.17,-162.5"/>
</g>
<!-- CheckpwdComponent -->
<g id="node3" class="node">
<title>CheckpwdComponent</title>
<polygon fill="#ffffb3" stroke="black" points="446.7,-122 305.3,-122 305.3,-86 446.7,-86 446.7,-122"/>
<text text-anchor="middle" x="376" y="-99.8" font-family="Times,serif" font-size="14.00">CheckpwdComponent</text>
</g>
<!-- CheckpwdComponent&#45;&gt;AppModule -->
<g id="edge3" class="edge">
<title>CheckpwdComponent&#45;&gt;AppModule</title>
<path fill="none" stroke="black" d="M376,-122.27C376,-140.56 376,-166 376,-166 376,-166 727.01,-166 727.01,-166"/>
<polygon fill="black" stroke="black" points="727.01,-169.5 737.01,-166 727.01,-162.5 727.01,-169.5"/>
</g>
<!-- LoginComponent -->
<g id="node4" class="node">
<title>LoginComponent</title>
<polygon fill="#ffffb3" stroke="black" points="287.28,-122 172.72,-122 172.72,-86 287.28,-86 287.28,-122"/>
<text text-anchor="middle" x="230" y="-99.8" font-family="Times,serif" font-size="14.00">LoginComponent</text>
</g>
<!-- LoginComponent&#45;&gt;AppModule -->
<g id="edge4" class="edge">
<title>LoginComponent&#45;&gt;AppModule</title>
<path fill="none" stroke="black" d="M230,-122.13C230,-142.57 230,-173 230,-173 230,-173 727.29,-173 727.29,-173"/>
<polygon fill="black" stroke="black" points="727.29,-176.5 737.29,-173 727.29,-169.5 727.29,-176.5"/>
</g>
<!-- ReqresetComponent -->
<g id="node5" class="node">
<title>ReqresetComponent</title>
<polygon fill="#ffffb3" stroke="black" points="154.31,-122 23.69,-122 23.69,-86 154.31,-86 154.31,-122"/>
<text text-anchor="middle" x="89" y="-99.8" font-family="Times,serif" font-size="14.00">ReqresetComponent</text>
</g>
<!-- ReqresetComponent&#45;&gt;AppModule -->
<g id="edge5" class="edge">
<title>ReqresetComponent&#45;&gt;AppModule</title>
<path fill="none" stroke="black" d="M89,-122.01C89,-144.49 89,-180 89,-180 89,-180 727.13,-180 727.13,-180"/>
<polygon fill="black" stroke="black" points="727.13,-183.5 737.13,-180 727.13,-176.5 727.13,-183.5"/>
</g>
<!-- AppComponent  -->
<g id="node9" class="node">
<title>AppComponent </title>
<polygon fill="#80b1d3" stroke="black" points="833.44,-252 724.56,-252 724.56,-216 833.44,-216 833.44,-252"/>
<text text-anchor="middle" x="779" y="-229.8" font-family="Times,serif" font-size="14.00">AppComponent </text>
</g>
<!-- AppModule&#45;&gt;AppComponent  -->
<g id="edge8" class="edge">
<title>AppModule&#45;&gt;AppComponent </title>
<path fill="none" stroke="black" stroke-dasharray="1,5" d="M779,-187.11C779,-187.11 779,-205.99 779,-205.99"/>
<polygon fill="black" stroke="black" points="775.5,-205.99 779,-215.99 782.5,-205.99 775.5,-205.99"/>
</g>
<!-- AppRoutingModule -->
<g id="node7" class="node">
<title>AppRoutingModule</title>
<polygon fill="#8dd3c7" stroke="black" points="1082.27,-122 1079.27,-126 1058.27,-126 1055.27,-122 953.73,-122 953.73,-86 1082.27,-86 1082.27,-122"/>
<text text-anchor="middle" x="1018" y="-99.8" font-family="Times,serif" font-size="14.00">AppRoutingModule</text>
</g>
<!-- AppRoutingModule&#45;&gt;AppModule -->
<g id="edge6" class="edge">
<title>AppRoutingModule&#45;&gt;AppModule</title>
<path fill="none" stroke="black" d="M1018,-122.01C1018,-138.05 1018,-159 1018,-159 1018,-159 830.9,-159 830.9,-159"/>
<polygon fill="black" stroke="black" points="830.9,-155.5 820.9,-159 830.9,-162.5 830.9,-155.5"/>
</g>
<!-- MaterialExampleModule -->
<g id="node8" class="node">
<title>MaterialExampleModule</title>
<polygon fill="#8dd3c7" stroke="black" points="935.23,-122 932.23,-126 911.23,-126 908.23,-122 778.77,-122 778.77,-86 935.23,-86 935.23,-122"/>
<text text-anchor="middle" x="857" y="-99.8" font-family="Times,serif" font-size="14.00">MaterialExampleModule</text>
</g>
<!-- MaterialExampleModule&#45;&gt;AppModule -->
<g id="edge7" class="edge">
<title>MaterialExampleModule&#45;&gt;AppModule</title>
<path fill="none" stroke="black" d="M799.73,-122.11C799.73,-122.11 799.73,-140.99 799.73,-140.99"/>
<polygon fill="black" stroke="black" points="796.23,-140.99 799.73,-150.99 803.23,-140.99 796.23,-140.99"/>
</g>
<!-- ResetService -->
<g id="node10" class="node">
<title>ResetService</title>
<ellipse fill="#fdb462" stroke="black" cx="1543" cy="-104" rx="61.39" ry="18"/>
<text text-anchor="middle" x="1543" y="-99.8" font-family="Times,serif" font-size="14.00">ResetService</text>
</g>
<!-- ResetService&#45;&gt;AppModule -->
<g id="edge9" class="edge">
<title>ResetService&#45;&gt;AppModule</title>
<path fill="none" stroke="black" d="M1543,-122.01C1543,-144.49 1543,-180 1543,-180 1543,-180 830.89,-180 830.89,-180"/>
<polygon fill="black" stroke="black" points="830.89,-176.5 820.89,-180 830.89,-183.5 830.89,-176.5"/>
</g>
<!-- SessionManagerService -->
<g id="node11" class="node">
<title>SessionManagerService</title>
<ellipse fill="#fdb462" stroke="black" cx="1360" cy="-104" rx="103.63" ry="18"/>
<text text-anchor="middle" x="1360" y="-99.8" font-family="Times,serif" font-size="14.00">SessionManagerService</text>
</g>
<!-- SessionManagerService&#45;&gt;AppModule -->
<g id="edge10" class="edge">
<title>SessionManagerService&#45;&gt;AppModule</title>
<path fill="none" stroke="black" d="M1360,-122.13C1360,-142.57 1360,-173 1360,-173 1360,-173 830.78,-173 830.78,-173"/>
<polygon fill="black" stroke="black" points="830.78,-169.5 820.78,-173 830.78,-176.5 830.78,-169.5"/>
</g>
<!-- SocketService -->
<g id="node12" class="node">
<title>SocketService</title>
<ellipse fill="#fdb462" stroke="black" cx="1172" cy="-104" rx="66.05" ry="18"/>
<text text-anchor="middle" x="1172" y="-99.8" font-family="Times,serif" font-size="14.00">SocketService</text>
</g>
<!-- SocketService&#45;&gt;AppModule -->
<g id="edge11" class="edge">
<title>SocketService&#45;&gt;AppModule</title>
<path fill="none" stroke="black" d="M1172,-122.27C1172,-140.56 1172,-166 1172,-166 1172,-166 830.69,-166 830.69,-166"/>
<polygon fill="black" stroke="black" points="830.69,-162.5 820.69,-166 830.69,-169.5 830.69,-162.5"/>
</g>
</g>
</svg>
